# AST/ASF file generated using VICON BodyLanguage
# -----------------------------------------------
:version 1.10
:name VICON
:units
  mass 1.0
  length 0.45
  angle deg
:documentation
   .ast/.asf automatically generated from VICON data using
   VICON BodyBuilder and BodyLanguage model FoxedUp or BRILLIANT.MOD
:root
   order TX TY TZ RX RY RZ
   axis XYZ
   position 0 0 0  
   orientation 0 0 0 
:bonedata
  begin
     id 1 
     name lhipjoint
     direction 0.650112 -0.723553 0.232005 
     length 2.45805 
     axis 0 0 0  XYZ
  end
  begin
     id 2 
     name lfemur
     direction 0.34202 -0.939693 0  
     length 7.00073  
     axis 0 0 20  XYZ
    dof rx ry rz
    limits (-160.0 20.0)
           (-70.0 70.0)
           (-60.0 70.0)
  end
  begin
     id 3 
     name ltibia
     direction 0.34202 -0.939693 0   
     length 7.8748   
     axis 0 0 20   XYZ
    dof rx
    limits (-10.0 170.0)
  end
  begin
     id 4 
     name lfoot
     direction 0.0542825 -0.14914 0.987325   
     length 1.75978   
     axis -90 7.62852e-016 20   XYZ
    dof rx rz
    limits (-45.0 90.0)
           (-70.0 20.0)
  end
  begin
     id 5 
     name ltoes
     direction 1.53509e-011 -4.21906e-011 1   
     length 0.893912   
     axis -90 7.62852e-016 20   XYZ
    dof rx
    limits (-90.0 20.0)
  end
  begin
     id 6 
     name rhipjoint
     direction -0.637897 -0.733345 0.235145   
     length 2.42522  
     axis 0 0 0  XYZ 
  end
  begin
     id 7 
     name rfemur
     direction -0.34202 -0.939693 0   
     length 7.02549   
     axis 0 0 -20   XYZ
    dof rx ry rz
    limits (-160.0 20.0)
           (-70.0 70.0)
           (-70.0 60.0)
  end
  begin
     id 8 
     name rtibia
     direction -0.34202 -0.939693 0   
     length 7.71512   
     axis 0 0 -20   XYZ
    dof rx
    limits (-10.0 170.0)
 end
 begin
     id 9 
     name rfoot
     direction -0.0822618 -0.226012 0.970645   
     length 1.90014  
     axis -90 -7.62852e-016 -20   XYZ
    dof rx rz
    limits (-45.0 90.0)
           (-20.0 70.0)
  end
  begin
     id 10 
     name rtoes
     direction -1.53542e-011 -4.21872e-011 1   
     length 0.957341   
     axis -90 -7.62852e-016 -20   XYZ
    dof rx
    limits (-90.0 20.0)
  end
  begin
     id 11 
     name lowerback
     direction -0.0022947 0.999774 -0.0211557   
     length 1.89909   
     axis 0 0 0   XYZ
    dof rx ry rz
    limits (-20.0 45.0)
           (-30.0 30.0)
           (-30.0 30.0)
  end
  begin
     id 12 
     name upperback
     direction 0.0107737 0.998635 0.0511027   
     length 1.8853   
     axis 0 0 0   XYZ
    dof rx ry rz
    limits (-20.0 45.0)
           (-30.0 30.0)
           (-30.0 30.0)
  end
  begin
     id 13 
     name thorax
     direction 0.011824 0.998136 0.0598754   
     length 1.88911   
     axis 0 0 0   XYZ
    dof rx ry rz
    limits (-20.0 45.0)
           (-30.0 30.0)
           (-30.0 30.0)
  end
  begin
     id 14 
     name lowerneck
     direction -0.0685355 0.990319 0.120714   
     length 1.91222   
     axis 0 0 0   XYZ
    dof rx ry rz
    limits (-20.0 45.0)
           (-30.0 30.0)
           (-30.0 30.0)
  end
  begin
     id 15 
     name upperneck
     direction 0.0886204 0.955665 -0.280805   
     length 1.92526   
     axis 0 0 0   XYZ
    dof rx ry rz
    limits (-20.0 45.0)
           (-30.0 30.0)
           (-30.0 30.0)
  end
  begin
     id 16
     name head
     direction 0.0233423 0.993502 -0.111393  
     length 1.96056  
     axis 0 0 0   XYZ
    dof rx ry rz
    limits (-20.0 45.0)
           (-30.0 30.0)
           (-30.0 30.0)
  end
  begin
     id 17 
     name lclavicle
     direction 0.941873 0.32922 0.0670041  
     length 3.31705  
     axis 0 0 0   XYZ
    dof ry rz
    limits (-20.0 10.0)
           (0.0 20.0)
  end
  begin
     id 18 
     name lhumerus
     direction 1 -4.4898e-011 3.38707e-028   
     length 5.29277   
     axis 180 -30 -90   XYZ
    dof rx ry rz
    limits (-60.0 90.0)
           (-90.0 90.0)
           (-90.0 90.0)
  end
  begin
     id 19
     name lradius
     direction 1 -4.48952e-011 1.63213e-028   
     length 2.85226   
     axis 180 -30 -90   XYZ
    dof rx
    limits (-10.0 170.0)
  end
  begin
     id 20
     name lwrist
     direction 1 -4.49001e-011 1.27856e-027   
     length 1.42613   
     axis -1.61767e-015 90 90   XYZ
    dof ry
    limits (-180.0 0.0)
 end
  begin
     id 21 
     name lhand
     direction 1 -4.48976e-011 2.55931e-027   
     length 0.602097   
     axis -1.63363e-015 90 90   XYZ
    dof rx rz
    limits (-90.0 90.0)
           (-45.0 45.0)
  end
  begin
     id 22 
     name lfingers
     direction 1 -4.48986e-011 5.11684e-027   
     length 0.485426   
     axis -3.26723e-015 90 90   XYZ
    dof rx
    limits (0.0 90.0)
  end
  begin
     id 23
     name lthumb
     direction 0.707107 -6.34915e-011 0.707107   
     length 0.696978   
     axis -90 45 -2.25915e-014   XYZ
    dof rx rz
    limits (-45.0 45.0)
           (-45.0 45.0)
  end
  begin
     id 24 
     name rclavicle
     direction -0.939974 0.327078 0.0973096   
     length 3.10337  
     axis 0 0 0   XYZ 
    dof ry rz
    limits (-10.0 20.0)
           (-20.0 0.0)
  end
  begin
     id 25 
     name rhumerus
     direction -1 -4.48975e-011 1.83745e-027  
     length 5.13304   
     axis 180 30 90   XYZ
    dof rx ry rz
    limits (-90.0 60.0)
           (-90.0 90.0)
           (-90.0 90.0)
  end
  begin
     id 26 
     name rradius
     direction -1 -4.48977e-011 7.1775e-029   
     length 2.74305   
     axis 180 30 90   XYZ
    dof rx
    limits (-10.0 170.0)
  end
  begin
     id 27 
     name rwrist
     direction -1 -4.48977e-011 1.27963e-027   
     length 1.37152   
     axis -1.61767e-015 -90 -90   XYZ
    dof ry
    limits (-180.0 0.0)
  end
  begin
     id 28
     name rhand
     direction -1 -4.4888e-011 2.56782e-027   
     length 0.767976   
     axis -1.63363e-015 -90 -90   XYZ
    dof rx rz
    limits (-90.0 90.0)
           (-45.0 45.0)
  end
  begin
     id 29
     name rfingers
     direction -1 -4.48947e-011 5.12384e-027   
     length 0.619162   
     axis -3.26723e-015 -90 -90   XYZ
    dof rx
    limits (0.0 90.0)
  end
  begin
     id 30
     name rthumb
     direction -0.707107 -6.34857e-011 0.707107   
     length 0.888997   
     axis -90 -45 2.25915e-014   XYZ
    dof rx rz
    limits (-45.0 45.0)
           (-45.0 45.0)
  end
:hierarchy
  begin
    root lhipjoint rhipjoint lowerback
    lhipjoint lfemur
    lfemur ltibia
    ltibia lfoot
    lfoot ltoes
    rhipjoint rfemur
    rfemur rtibia
    rtibia rfoot
    rfoot rtoes
    lowerback upperback
    upperback thorax
    thorax lowerneck lclavicle rclavicle
    lowerneck upperneck
    upperneck head
    lclavicle lhumerus
    lhumerus lradius
    lradius lwrist
    lwrist lhand lthumb
    lhand lfingers
    rclavicle rhumerus
    rhumerus rradius
    rradius rwrist
    rwrist rhand rthumb
    rhand rfingers
  end

#!OML:ASF F:\VICON\USERDATA\INSTALL\rory3\rory3.ASF
:FULLY-SPECIFIED
:DEGREES
1735
root 0.29842 17.4143 -0.951231 0.587741 4.63868 -1.29813
lowerback -3.09493 -1.16822 1.84227
upperback -8.00757 -1.56356 -0.544278
thorax -6.66471 -0.908297 -1.554
lowerneck -3.03676 -10.0287 -15.3322
upperneck 25.5398 -16.4803 14.7405
head 11.2979 -7.83715 5.97599
rclavicle 2.34566e-014 -4.17448e-015
rhumerus -307.711 -47.5741 -383.781
rradius 39.8058
rwrist 5.11943
rhand -9.22661 11.4216
rfingers 7.12502
rthumb 16.7283 -17.8777
lclavicle 2.34566e-014 -4.17448e-015
lhumerus 53.4517 38.5409 40.2766
lradius 36.37
lwrist 11.0779
lhand -1.24482 23.046
lfingers 7.12502
lthumb 24.3975 51.5128
rfemur 3.31014 9.39973 20.359
rtibia 5.43849
rfoot -8.38469 -14.4815
rtoes -9.22096
lfemur -5.89724 -17.8521 -18.0433
ltibia 18.1305
lfoot -13.6913 8.9219
ltoes -23.8624
1736
root 0.299353 17.4148 -0.966498 0.490542 4.51148 -1.29799
lowerback -2.96266 -1.12115 1.81063
upperback -7.84187 -1.49754 -0.497193
thorax -6.55626 -0.869606 -1.48826
lowerneck -3.08779 -10.1275 -15.4819
upperneck 25.5561 -16.669 14.9611
head 11.3887 -7.91433 6.05241
rclavicle -7.10655e-015 -6.75868e-015
rhumerus -307.909 -47.5286 -383.987
rradius 39.372
rwrist 5.86468
rhand -9.46952 11.6549
rfingers 7.12502
rthumb 16.4944 -17.664
lclavicle -7.10655e-015 -6.75868e-015
lhumerus 52.9703 38.3273 40.3319
lradius 35.4004
lwrist 10.2956
lhand -1.22339 22.8785
lfingers 7.12502
lthumb 24.4181 51.3424
rfemur 3.31409 9.51842 20.3632
rtibia 5.51408
rfoot -8.32259 -14.4987
rtoes -9.52047
lfemur -5.76715 -17.8271 -18.0747
ltibia 18.0547
lfoot -13.6782 8.84709
ltoes -23.0512
1737
root 0.300339 17.4163 -0.980143 0.434559 4.43649 -1.16842
lowerback -2.86758 -1.07784 1.64108
upperback -7.71625 -1.44144 -0.510049
thorax -6.468 -0.830245 -1.40806
lowerneck -3.10784 -10.2334 -15.4801
upperneck 25.6366 -16.8627 15.0477
head 11.4708 -7.99205 6.05481
rclavicle 7.00716e-015 -7.15625e-015
rhumerus -308.498 -47.4174 -383.845
rradius 38.9861
rwrist 6.43703
rhand -9.58256 11.719
rfingers 7.12502
rthumb 16.3856 -17.6089
lclavicle 7.00716e-015 -7.15625e-015
lhumerus 52.3062 37.9678 40.1403
lradius 34.3602
lwrist 9.68939
lhand -1.10162 22.9849
lfingers 7.12502
lthumb 24.5348 51.433
rfemur 3.28836 9.58429 20.2157
rtibia 5.60831
rfoot -8.27014 -14.5385
rtoes -9.778
lfemur -5.67474 -17.8388 -18.2436
ltibia 17.9593
lfoot -13.6567 8.8315
ltoes -22.3169
1738
root 0.300081 17.4178 -0.995471 0.379207 4.39328 -1.16924
lowerback -2.74318 -1.03413 1.5796
upperback -7.61841 -1.3814 -0.489764
thorax -6.42919 -0.794959 -1.35297
lowerneck -2.98788 -10.3268 -15.4184
upperneck 25.6157 -17.0375 15.1044
head 11.4726 -8.06687 6.04316
rclavicle 5.31749e-015 -5.1684e-015
rhumerus -309.669 -47.1423 -383.124
rradius 38.69
rwrist 6.62801
rhand -9.66521 11.5954
rfingers 7.12502
rthumb 16.306 -17.739
lclavicle 5.31749e-015 -5.1684e-015
lhumerus 51.7371 37.6582 40.1508
lradius 33.1712
lwrist 8.64481
lhand -0.585505 23.1218
lfingers 7.12502
lthumb 25.0294 51.502
rfemur 3.25963 9.61956 20.2146
rtibia 5.67967
rfoot -8.30859 -14.5794
rtoes -9.77912
lfemur -5.6281 -17.8272 -18.2489
ltibia 17.8878
lfoot -13.6012 9.04574
ltoes -23.0671
1739
root 0.300264 17.4192 -1.01187 0.349916 4.37612 -1.1231
lowerback -2.599 -1.01582 1.46593
upperback -7.5507 -1.3551 -0.45632
thorax -6.43376 -0.773457 -1.25338
lowerneck -2.84893 -10.3917 -15.3774
upperneck 25.5453 -17.1569 15.1467
head 11.4411 -8.1214 6.03818
rclavicle -7.8023e-015 -1.19271e-015
rhumerus -310.76 -46.774 -382.535
rradius 38.3249
rwrist 7.01069
rhand -9.99175 11.3946
rfingers 7.12502
rthumb 15.9916 -17.9654
lclavicle -7.8023e-015 -1.19271e-015
lhumerus 50.9902 37.3556 40.031
lradius 31.8462
lwrist 7.29274
lhand 0.223645 23.2633
lfingers 7.12502
lthumb 25.8046 51.5331
rfemur 3.20671 9.62869 20.1476
rtibia 5.72097
rfoot -8.23563 -14.5846
rtoes -9.75564
lfemur -5.62427 -17.8612 -18.3052
ltibia 17.8313
lfoot -13.324 9.28037
ltoes -24.6854
